<svg width="16" height="16" viewBox="0 0 16 16" fill="none" xmlns="http://www.w3.org/2000/svg">
<rect x="6.99512" y="2" width="2" height="12" fill="#67FF6A"/>
<rect x="2" y="9" width="2" height="12" transform="rotate(-90 2 9)" fill="#67FF6A"/>
<rect x="3.05078" y="4.4646" width="2" height="12" transform="rotate(-45 3.05078 4.4646)" fill="#67FF6A"/>
<rect x="11.5361" y="3.05029" width="2" height="12" transform="rotate(45 11.5361 3.05029)" fill="#67FF6A"/>
<path d="M16 8C16 12.4183 12.4183 16 8 16C3.58172 16 0 12.4183 0 8C0 3.58172 3.58172 0 8 0C12.4183 0 16 3.58172 16 8ZM2.25074 8C2.25074 11.1752 4.82477 13.7493 8 13.7493C11.1752 13.7493 13.7493 11.1752 13.7493 8C13.7493 4.82477 11.1752 2.25074 8 2.25074C4.82477 2.25074 2.25074 4.82477 2.25074 8Z" fill="#00FF04"/>
</svg>
